<mxfile host="65bd71144e">
    <diagram id="62peFry_gt7iZTsSCU7j" name="Página-1">
        <mxGraphModel dx="662" dy="411" grid="1" gridSize="10" guides="1" tooltips="1" connect="1" arrows="1" fold="1" page="1" pageScale="1" pageWidth="827" pageHeight="1169" math="0" shadow="0">
            <root>
                <mxCell id="0"/>
                <mxCell id="1" parent="0"/>
                <mxCell id="4" value="" style="edgeStyle=none;html=1;" edge="1" parent="1" source="2" target="3">
                    <mxGeometry relative="1" as="geometry"/>
                </mxCell>
                <mxCell id="2" value="INICIO" style="rounded=1;whiteSpace=wrap;html=1;fillColor=#60a917;fontColor=#ffffff;strokeColor=#2D7600;" vertex="1" parent="1">
                    <mxGeometry x="500" width="120" height="60" as="geometry"/>
                </mxCell>
                <mxCell id="7" value="" style="edgeStyle=none;html=1;entryX=0.5;entryY=0;entryDx=0;entryDy=0;" edge="1" parent="1" source="3">
                    <mxGeometry relative="1" as="geometry">
                        <mxPoint x="560" y="210" as="targetPoint"/>
                    </mxGeometry>
                </mxCell>
                <mxCell id="3" value="A.B.C" style="shape=parallelogram;perimeter=parallelogramPerimeter;whiteSpace=wrap;html=1;fixedSize=1;fillColor=#a20025;fontColor=#ffffff;strokeColor=#6F0000;" vertex="1" parent="1">
                    <mxGeometry x="500" y="90" width="120" height="60" as="geometry"/>
                </mxCell>
                <mxCell id="10" value="" style="edgeStyle=none;html=1;entryX=0.5;entryY=0;entryDx=0;entryDy=0;" edge="1" parent="1" source="29" target="14">
                    <mxGeometry relative="1" as="geometry">
                        <mxPoint x="495" y="240" as="sourcePoint"/>
                        <mxPoint x="340" y="310" as="targetPoint"/>
                        <Array as="points">
                            <mxPoint x="340" y="250"/>
                        </Array>
                    </mxGeometry>
                </mxCell>
                <mxCell id="11" value="las raices son imaginarias" style="rounded=0;whiteSpace=wrap;html=1;fillColor=#e51400;fontColor=#ffffff;strokeColor=#B20000;" vertex="1" parent="1">
                    <mxGeometry x="100" y="460" width="120" height="60" as="geometry"/>
                </mxCell>
                <mxCell id="12" value="x= -b+&lt;b style=&quot;color: rgb(32, 33, 36); font-family: arial, sans-serif; font-size: 16px; text-align: left; background-color: rgb(255, 255, 255);&quot;&gt;√d/2a&lt;br&gt;x2= -b+&lt;/b&gt;&lt;b style=&quot;color: rgb(32, 33, 36); font-family: arial, sans-serif; font-size: 16px; text-align: left; background-color: rgb(255, 255, 255);&quot;&gt;√d/2a&lt;/b&gt;&lt;b style=&quot;color: rgb(32, 33, 36); font-family: arial, sans-serif; font-size: 16px; text-align: left; background-color: rgb(255, 255, 255);&quot;&gt;&lt;br&gt;&lt;/b&gt;" style="rounded=0;whiteSpace=wrap;html=1;fillColor=#e51400;fontColor=#ffffff;strokeColor=#B20000;" vertex="1" parent="1">
                    <mxGeometry x="450" y="410" width="120" height="60" as="geometry"/>
                </mxCell>
                <mxCell id="13" value="" style="endArrow=none;html=1;exitX=0.5;exitY=0;exitDx=0;exitDy=0;entryX=0;entryY=0.5;entryDx=0;entryDy=0;" edge="1" parent="1" source="11" target="14">
                    <mxGeometry width="50" height="50" relative="1" as="geometry">
                        <mxPoint x="320" y="450" as="sourcePoint"/>
                        <mxPoint x="290" y="360" as="targetPoint"/>
                        <Array as="points">
                            <mxPoint x="160" y="360"/>
                        </Array>
                    </mxGeometry>
                </mxCell>
                <mxCell id="14" value="d == 0" style="rhombus;whiteSpace=wrap;html=1;fillColor=#e51400;fontColor=#ffffff;strokeColor=#B20000;" vertex="1" parent="1">
                    <mxGeometry x="300" y="320" width="80" height="80" as="geometry"/>
                </mxCell>
                <mxCell id="15" value="" style="endArrow=none;html=1;entryX=0.5;entryY=0;entryDx=0;entryDy=0;exitX=1;exitY=0.5;exitDx=0;exitDy=0;" edge="1" parent="1" source="14" target="12">
                    <mxGeometry width="50" height="50" relative="1" as="geometry">
                        <mxPoint x="320" y="450" as="sourcePoint"/>
                        <mxPoint x="370" y="400" as="targetPoint"/>
                        <Array as="points">
                            <mxPoint x="510" y="360"/>
                        </Array>
                    </mxGeometry>
                </mxCell>
                <mxCell id="20" value="" style="edgeStyle=none;html=1;" edge="1" parent="1" source="16" target="19">
                    <mxGeometry relative="1" as="geometry"/>
                </mxCell>
                <mxCell id="16" value="x1,x2" style="shape=document;whiteSpace=wrap;html=1;boundedLbl=1;fillColor=#647687;fontColor=#ffffff;strokeColor=#314354;" vertex="1" parent="1">
                    <mxGeometry x="280" y="690" width="120" height="80" as="geometry"/>
                </mxCell>
                <mxCell id="17" value="" style="endArrow=none;html=1;entryX=0.5;entryY=0;entryDx=0;entryDy=0;exitX=0.5;exitY=1;exitDx=0;exitDy=0;" edge="1" parent="1" source="11" target="16">
                    <mxGeometry width="50" height="50" relative="1" as="geometry">
                        <mxPoint x="320" y="610" as="sourcePoint"/>
                        <mxPoint x="370" y="560" as="targetPoint"/>
                        <Array as="points">
                            <mxPoint x="160" y="630"/>
                            <mxPoint x="340" y="630"/>
                        </Array>
                    </mxGeometry>
                </mxCell>
                <mxCell id="18" value="" style="endArrow=none;html=1;" edge="1" parent="1">
                    <mxGeometry width="50" height="50" relative="1" as="geometry">
                        <mxPoint x="340" y="690" as="sourcePoint"/>
                        <mxPoint x="510" y="580" as="targetPoint"/>
                        <Array as="points">
                            <mxPoint x="340" y="630"/>
                            <mxPoint x="510" y="630"/>
                        </Array>
                    </mxGeometry>
                </mxCell>
                <mxCell id="19" value="FIN" style="ellipse;whiteSpace=wrap;html=1;fillColor=#60a917;fontColor=#ffffff;strokeColor=#2D7600;" vertex="1" parent="1">
                    <mxGeometry x="280" y="840" width="120" height="80" as="geometry"/>
                </mxCell>
                <mxCell id="22" value="" style="endArrow=classic;html=1;entryX=0.5;entryY=0;entryDx=0;entryDy=0;" edge="1" parent="1" source="29">
                    <mxGeometry width="50" height="50" relative="1" as="geometry">
                        <mxPoint x="625" y="240" as="sourcePoint"/>
                        <mxPoint x="820" y="310" as="targetPoint"/>
                        <Array as="points">
                            <mxPoint x="820" y="250"/>
                        </Array>
                    </mxGeometry>
                </mxCell>
                <mxCell id="23" value="" style="endArrow=none;html=1;" edge="1" parent="1">
                    <mxGeometry width="50" height="50" relative="1" as="geometry">
                        <mxPoint x="340" y="810" as="sourcePoint"/>
                        <mxPoint x="820" y="510" as="targetPoint"/>
                        <Array as="points">
                            <mxPoint x="820" y="810"/>
                        </Array>
                    </mxGeometry>
                </mxCell>
                <mxCell id="24" value="x1 = b/2a&lt;br&gt;x2 = x" style="rounded=0;whiteSpace=wrap;html=1;fillColor=#a0522d;fontColor=#ffffff;strokeColor=#6D1F00;" vertex="1" parent="1">
                    <mxGeometry x="760" y="310" width="120" height="60" as="geometry"/>
                </mxCell>
                <mxCell id="25" value="x, x2" style="rounded=0;whiteSpace=wrap;html=1;fillColor=#a0522d;fontColor=#ffffff;strokeColor=#6D1F00;" vertex="1" parent="1">
                    <mxGeometry x="760" y="450" width="120" height="60" as="geometry"/>
                </mxCell>
                <mxCell id="26" value="" style="endArrow=none;html=1;entryX=0.5;entryY=1;entryDx=0;entryDy=0;exitX=0.5;exitY=0;exitDx=0;exitDy=0;" edge="1" parent="1" source="25" target="24">
                    <mxGeometry width="50" height="50" relative="1" as="geometry">
                        <mxPoint x="660" y="470" as="sourcePoint"/>
                        <mxPoint x="710" y="420" as="targetPoint"/>
                    </mxGeometry>
                </mxCell>
                <mxCell id="27" value="x, x2" style="rounded=0;whiteSpace=wrap;html=1;fillColor=#e51400;fontColor=#ffffff;strokeColor=#B20000;" vertex="1" parent="1">
                    <mxGeometry x="450" y="520" width="120" height="60" as="geometry"/>
                </mxCell>
                <mxCell id="28" value="" style="endArrow=none;html=1;entryX=0.5;entryY=1;entryDx=0;entryDy=0;exitX=0.5;exitY=0;exitDx=0;exitDy=0;" edge="1" parent="1" source="27" target="12">
                    <mxGeometry width="50" height="50" relative="1" as="geometry">
                        <mxPoint x="340" y="520" as="sourcePoint"/>
                        <mxPoint x="390" y="470" as="targetPoint"/>
                    </mxGeometry>
                </mxCell>
                <mxCell id="29" value="&lt;b style=&quot;color: rgb(32, 33, 36); font-family: arial, sans-serif;&quot;&gt;&lt;span style=&quot;font-size: 16px;&quot;&gt;d= b&lt;sup&gt;2&lt;/sup&gt;4ac&lt;/span&gt;&lt;/b&gt;" style="rhombus;whiteSpace=wrap;html=1;fillColor=#b1ddf0;strokeColor=#10739e;" vertex="1" parent="1">
                    <mxGeometry x="520" y="210" width="80" height="80" as="geometry"/>
                </mxCell>
            </root>
        </mxGraphModel>
    </diagram>
</mxfile>